<?xml version="1.0" encoding="UTF-8"?>
<svg id="a" data-name="Layer 1" xmlns="http://www.w3.org/2000/svg" width="24" height="24" viewBox="0 0 24 24">
  <path d="M21.99902,9.56104c-.55273,0-1,.44775-1,1v8.43896c0,1.10303-.89746,2-2,2H4.99902c-1.10254,0-2-.89697-2-2V5c0-1.10303,.89746-2,2-2H13.43848c.55273,0,1-.44775,1-1s-.44727-1-1-1H4.99902C2.79297,1,.99902,2.79443,.99902,5v14c0,2.20557,1.79395,4,4,4h14c2.20605,0,4-1.79443,4-4V10.56104c0-.55225-.44727-1-1-1Z"/>
  <path d="M9.1958,7.71069c-.35327,.2049-.5708,.58203-.5708,.9906v6.59711c0,.40851,.21753,.78564,.5708,.98932,.17725,.10181,.37451,.15332,.57202,.15332,.19727,0,.39465-.05151,.5719-.15332l5.71338-3.29858c.35315-.20361,.5719-.58075,.5719-.98932s-.21875-.78564-.5719-.99054l-5.71338-3.29858c-.35449-.20239-.78943-.20239-1.14392,0Z"/>
  <path d="M23.00098,3.00195h-2.00391V1c0-.55225-.44727-1-1-1s-1,.44775-1,1V3.00195h-1.99805c-.55273,0-1,.44775-1,1s.44727,1,1,1h1.99805v2.00342c0,.55225,.44727,1,1,1s1-.44775,1-1v-2.00342h2.00391c.55273,0,1-.44775,1-1s-.44727-1-1-1Z"/>
</svg>